<?xml version="1.0" encoding="UTF-8" standalone="no"?>
<!DOCTYPE svg PUBLIC "-//W3C//DTD SVG 1.1//EN"
 "http://www.w3.org/Graphics/SVG/1.1/DTD/svg11.dtd">
<!-- Generated by graphviz version 2.28.0 (20120531.1627)
 -->
<!-- Title: G Pages: 1 -->
<svg width="586pt" height="706pt"
 viewBox="0.00 0.00 586.00 706.00" xmlns="http://www.w3.org/2000/svg" xmlns:xlink="http://www.w3.org/1999/xlink">
<g id="graph1" class="graph" transform="scale(1 1) rotate(0) translate(4 702)">
<title>G</title>
<polygon fill="white" stroke="white" points="-4,5 -4,-702 583,-702 583,5 -4,5"/>
<g id="graph2" class="cluster"><title>cluster_default</title>
<polyline fill="none" stroke="none" points="268,-44 558,-44 "/>
<path fill="none" stroke="none" d="M558,-44C564,-44 570,-50 570,-56"/>
<polyline fill="none" stroke="none" points="570,-56 570,-678 "/>
<path fill="none" stroke="none" d="M570,-678C570,-684 564,-690 558,-690"/>
<polyline fill="none" stroke="none" points="558,-690 268,-690 "/>
<path fill="none" stroke="none" d="M268,-690C262,-690 256,-684 256,-678"/>
<polyline fill="none" stroke="none" points="256,-678 256,-56 "/>
<path fill="none" stroke="none" d="M256,-56C256,-50 262,-44 268,-44"/>
</g>
<!-- \\Controller -->
<g id="node2" class="node"><title>\\Controller</title>
<a xlink:href="classes.Controller.html" xlink:title="Controller" target="_parent">
<polygon fill="none" stroke="black" points="348,-493 264,-493 264,-457 348,-457 348,-493"/>
<text text-anchor="middle" x="306" y="-472.2" font-family="Courier,monospace" font-size="11.00">Controller</text>
</a>
</g>
<!-- \\Dispatch -->
<g id="node3" class="node"><title>\\Dispatch</title>
<a xlink:href="classes.Dispatch.html" xlink:title="Dispatch" target="_parent">
<polygon fill="none" stroke="black" points="531.5,-682 460.5,-682 460.5,-646 531.5,-646 531.5,-682"/>
<text text-anchor="middle" x="496" y="-661.2" font-family="Courier,monospace" font-size="11.00">Dispatch</text>
</a>
</g>
<!-- \\ModelBase -->
<g id="node4" class="node"><title>\\ModelBase</title>
<a xlink:href="classes.ModelBase.html" xlink:title="ModelBase" target="_parent">
<polygon fill="none" stroke="black" points="344.5,-250 267.5,-250 267.5,-214 344.5,-214 344.5,-250"/>
<text text-anchor="middle" x="306" y="-229.2" font-family="Courier,monospace" font-size="11.00">ModelBase</text>
</a>
</g>
<!-- \\ActiveRecord\\Model -->
<g id="node17" class="node"><title>\\ActiveRecord\\Model</title>
<ellipse fill="none" stroke="black" cx="91" cy="-232" rx="90.9839" ry="18"/>
<text text-anchor="middle" x="91" y="-228.3" font-family="Times,serif" font-size="14.00" fill="gray">\ActiveRecord\Model</text>
</g>
<!-- \\ModelBase&#45;&gt;\\ActiveRecord\\Model -->
<g id="edge3" class="edge"><title>\\ModelBase&#45;&gt;\\ActiveRecord\\Model</title>
<path fill="none" stroke="black" d="M267.41,-232C246.442,-232 219.228,-232 192.517,-232"/>
<polygon fill="none" stroke="black" points="192.319,-228.5 182.319,-232 192.319,-235.5 192.319,-228.5"/>
</g>
<!-- \\Response -->
<g id="node5" class="node"><title>\\Response</title>
<a xlink:href="classes.Response.html" xlink:title="Response" target="_parent">
<polygon fill="none" stroke="black" points="531.5,-628 460.5,-628 460.5,-592 531.5,-592 531.5,-628"/>
<text text-anchor="middle" x="496" y="-607.2" font-family="Courier,monospace" font-size="11.00">Response</text>
</a>
</g>
<!-- \\ResponseException -->
<g id="node6" class="node"><title>\\ResponseException</title>
<a xlink:href="classes.ResponseException.html" xlink:title="ResponseException" target="_parent">
<polygon fill="none" stroke="black" points="561.5,-88 430.5,-88 430.5,-52 561.5,-52 561.5,-88"/>
<text text-anchor="middle" x="496" y="-67.2" font-family="Courier,monospace" font-size="11.00">ResponseException</text>
</a>
</g>
<!-- \\Exception -->
<g id="node19" class="node"><title>\\Exception</title>
<ellipse fill="none" stroke="black" cx="306" cy="-18" rx="51.1914" ry="18"/>
<text text-anchor="middle" x="306" y="-14.3" font-family="Times,serif" font-size="14.00" fill="gray">\Exception</text>
</g>
<!-- \\ResponseException&#45;&gt;\\Exception -->
<g id="edge5" class="edge"><title>\\ResponseException&#45;&gt;\\Exception</title>
<path fill="none" stroke="black" d="M430.301,-52.1045C406.153,-45.4252 379.138,-37.953 356.564,-31.7091"/>
<polygon fill="none" stroke="black" points="357.429,-28.317 346.857,-29.0244 355.562,-35.0637 357.429,-28.317"/>
</g>
<!-- \\AccountController -->
<g id="node7" class="node"><title>\\AccountController</title>
<a xlink:href="controllers.AccountController.html" xlink:title="AccountController" target="_parent">
<polygon fill="none" stroke="black" points="561.5,-574 430.5,-574 430.5,-538 561.5,-538 561.5,-574"/>
<text text-anchor="middle" x="496" y="-553.2" font-family="Courier,monospace" font-size="11.00">AccountController</text>
</a>
</g>
<!-- \\AccountController&#45;&gt;\\Controller -->
<g id="edge7" class="edge"><title>\\AccountController&#45;&gt;\\Controller</title>
<path fill="none" stroke="black" d="M451.245,-537.965C444.133,-534.994 436.855,-531.928 430,-529 405.886,-518.699 379.227,-507.03 356.91,-497.182"/>
<polygon fill="none" stroke="black" points="358.193,-493.922 347.631,-493.082 355.364,-500.325 358.193,-493.922"/>
</g>
<!-- \\CardController -->
<g id="node8" class="node"><title>\\CardController</title>
<a xlink:href="controllers.CardController.html" xlink:title="CardController" target="_parent">
<polygon fill="none" stroke="black" points="551.5,-520 440.5,-520 440.5,-484 551.5,-484 551.5,-520"/>
<text text-anchor="middle" x="496" y="-499.2" font-family="Courier,monospace" font-size="11.00">CardController</text>
</a>
</g>
<!-- \\CardController&#45;&gt;\\Controller -->
<g id="edge9" class="edge"><title>\\CardController&#45;&gt;\\Controller</title>
<path fill="none" stroke="black" d="M440.37,-494.154C414.453,-490.432 383.661,-486.01 358.198,-482.353"/>
<polygon fill="none" stroke="black" points="358.399,-478.846 348.003,-480.889 357.404,-485.775 358.399,-478.846"/>
</g>
<!-- \\CompanyController -->
<g id="node9" class="node"><title>\\CompanyController</title>
<a xlink:href="controllers.CompanyController.html" xlink:title="CompanyController" target="_parent">
<polygon fill="none" stroke="black" points="561.5,-466 430.5,-466 430.5,-430 561.5,-430 561.5,-466"/>
<text text-anchor="middle" x="496" y="-445.2" font-family="Courier,monospace" font-size="11.00">CompanyController</text>
</a>
</g>
<!-- \\CompanyController&#45;&gt;\\Controller -->
<g id="edge11" class="edge"><title>\\CompanyController&#45;&gt;\\Controller</title>
<path fill="none" stroke="black" d="M430.301,-457.292C406.722,-460.678 380.409,-464.457 358.166,-467.652"/>
<polygon fill="none" stroke="black" points="357.658,-464.189 348.257,-469.075 358.653,-471.118 357.658,-464.189"/>
</g>
<!-- \\PersonController -->
<g id="node10" class="node"><title>\\PersonController</title>
<a xlink:href="controllers.PersonController.html" xlink:title="PersonController" target="_parent">
<polygon fill="none" stroke="black" points="558.5,-412 433.5,-412 433.5,-376 558.5,-376 558.5,-412"/>
<text text-anchor="middle" x="496" y="-391.2" font-family="Courier,monospace" font-size="11.00">PersonController</text>
</a>
</g>
<!-- \\PersonController&#45;&gt;\\Controller -->
<g id="edge13" class="edge"><title>\\PersonController&#45;&gt;\\Controller</title>
<path fill="none" stroke="black" d="M451.245,-412.035C444.133,-415.006 436.855,-418.072 430,-421 405.886,-431.301 379.227,-442.97 356.91,-452.818"/>
<polygon fill="none" stroke="black" points="355.364,-449.675 347.631,-456.918 358.193,-456.078 355.364,-449.675"/>
</g>
<!-- \\Account -->
<g id="node11" class="node"><title>\\Account</title>
<a xlink:href="models.Account.html" xlink:title="Account" target="_parent">
<polygon fill="none" stroke="black" points="528,-358 464,-358 464,-322 528,-322 528,-358"/>
<text text-anchor="middle" x="496" y="-337.2" font-family="Courier,monospace" font-size="11.00">Account</text>
</a>
</g>
<!-- \\Account&#45;&gt;\\ModelBase -->
<g id="edge15" class="edge"><title>\\Account&#45;&gt;\\ModelBase</title>
<path fill="none" stroke="black" d="M463.701,-328.391C452.827,-323.995 440.685,-318.672 430,-313 398.22,-296.13 364.214,-273.332 340.03,-256.22"/>
<polygon fill="none" stroke="black" points="341.76,-253.155 331.588,-250.195 337.694,-258.853 341.76,-253.155"/>
</g>
<!-- \\Card -->
<g id="node12" class="node"><title>\\Card</title>
<a xlink:href="models.Card.html" xlink:title="Card" target="_parent">
<polygon fill="none" stroke="black" points="523,-304 469,-304 469,-268 523,-268 523,-304"/>
<text text-anchor="middle" x="496" y="-283.2" font-family="Courier,monospace" font-size="11.00">Card</text>
</a>
</g>
<!-- \\Card&#45;&gt;\\ModelBase -->
<g id="edge17" class="edge"><title>\\Card&#45;&gt;\\ModelBase</title>
<path fill="none" stroke="black" d="M468.859,-278.492C439.348,-270.015 390.73,-256.05 354.467,-245.634"/>
<polygon fill="none" stroke="black" points="355.17,-242.195 344.593,-242.798 353.238,-248.923 355.17,-242.195"/>
</g>
<!-- \\Company -->
<g id="node13" class="node"><title>\\Company</title>
<a xlink:href="models.Company.html" xlink:title="Company" target="_parent">
<polygon fill="none" stroke="black" points="528,-250 464,-250 464,-214 528,-214 528,-250"/>
<text text-anchor="middle" x="496" y="-229.2" font-family="Courier,monospace" font-size="11.00">Company</text>
</a>
</g>
<!-- \\Company&#45;&gt;\\ModelBase -->
<g id="edge19" class="edge"><title>\\Company&#45;&gt;\\ModelBase</title>
<path fill="none" stroke="black" d="M463.956,-232C434.278,-232 389.106,-232 354.83,-232"/>
<polygon fill="none" stroke="black" points="354.572,-228.5 344.572,-232 354.572,-235.5 354.572,-228.5"/>
</g>
<!-- \\Person -->
<g id="node14" class="node"><title>\\Person</title>
<a xlink:href="models.Person.html" xlink:title="Person" target="_parent">
<polygon fill="none" stroke="black" points="524.5,-196 467.5,-196 467.5,-160 524.5,-160 524.5,-196"/>
<text text-anchor="middle" x="496" y="-175.2" font-family="Courier,monospace" font-size="11.00">Person</text>
</a>
</g>
<!-- \\Person&#45;&gt;\\ModelBase -->
<g id="edge21" class="edge"><title>\\Person&#45;&gt;\\ModelBase</title>
<path fill="none" stroke="black" d="M467.26,-185.968C437.571,-194.496 389.939,-208.177 354.307,-218.412"/>
<polygon fill="none" stroke="black" points="353.245,-215.075 344.6,-221.2 355.177,-221.803 353.245,-215.075"/>
</g>
<!-- \\Transaction -->
<g id="node15" class="node"><title>\\Transaction</title>
<a xlink:href="models.Transaction.html" xlink:title="Transaction" target="_parent">
<polygon fill="none" stroke="black" points="541.5,-142 450.5,-142 450.5,-106 541.5,-106 541.5,-142"/>
<text text-anchor="middle" x="496" y="-121.2" font-family="Courier,monospace" font-size="11.00">Transaction</text>
</a>
</g>
<!-- \\Transaction&#45;&gt;\\ModelBase -->
<g id="edge23" class="edge"><title>\\Transaction&#45;&gt;\\ModelBase</title>
<path fill="none" stroke="black" d="M450.441,-140.46C443.43,-143.628 436.393,-147.167 430,-151 394.517,-172.274 393.338,-188.486 358,-210 356.556,-210.879 355.071,-211.741 353.556,-212.584"/>
<polygon fill="none" stroke="black" points="351.926,-209.487 344.653,-217.191 355.143,-215.704 351.926,-209.487"/>
</g>
</g>
</svg>
